{
	"asset":{
		"generator":"Khronos glTF Blender I/O v4.1.63",
		"version":"2.0"
	},
	"scene":0,
	"scenes":[
		{
			"name":"Scene",
			"nodes":[
				0,
				1,
				2,
				3,
				4,
				5,
				6
			]
		}
	],
	"nodes":[
		{
			"mesh":0,
			"name":"br_Ground",
			"translation":[
				7.975151062011719,
				-1.1277985572814941,
				-5.705088369722944e-06
			]
		},
		{
			"mesh":1,
			"name":"br_Ceiling",
			"rotation":[
				0,
				0,
				0.9999911785125732,
				0.004224928095936775
			],
			"translation":[
				67.43421173095703,
				29.06716537475586,
				8.748024811211508e-06
			]
		},
		{
			"mesh":2,
			"name":"dt_Grass",
			"rotation":[
				0.7071068286895752,
				0,
				0,
				0.7071068286895752
			],
			"translation":[
				47.006229400634766,
				3.2262122631073,
				0
			]
		},
		{
			"mesh":3,
			"name":"dt_Grass.001",
			"rotation":[
				0.7071068286895752,
				0,
				0,
				0.7071068286895752
			],
			"translation":[
				42.48350143432617,
				3.2262122631073,
				0
			]
		},
		{
			"mesh":4,
			"name":"dt_Grass.002",
			"rotation":[
				0.6834322810173035,
				0.18143945932388306,
				0.18143966794013977,
				0.6834322810173035
			],
			"translation":[
				35.156681060791016,
				1.2663631439208984,
				0
			]
		},
		{
			"mesh":5,
			"name":"dt_Grass.003",
			"rotation":[
				0.7070977687835693,
				0.003564876737073064,
				0.003565090475603938,
				0.7070978283882141
			],
			"translation":[
				26.533344268798828,
				0.7236356735229492,
				-2.4059681891230866e-06
			]
		},
		{
			"mesh":6,
			"name":"sp_Player",
			"rotation":[
				0.7071068286895752,
				0,
				0,
				0.7071068286895752
			],
			"scale":[
				1,
				1,
				2
			],
			"translation":[
				51.57551574707031,
				2.284583806991577,
				5.397787390393205e-06
			]
		}
	],
	"materials":[
		{
			"doubleSided":true,
			"name":"Material",
			"pbrMetallicRoughness":{
				"baseColorTexture":{
					"index":0
				},
				"metallicFactor":0,
				"roughnessFactor":0.5
			}
		},
		{
			"doubleSided":true,
			"name":"Material.001",
			"pbrMetallicRoughness":{
				"baseColorTexture":{
					"index":1
				},
				"metallicFactor":0,
				"roughnessFactor":0.5
			}
		}
	],
	"meshes":[
		{
			"name":"Plane.001",
			"primitives":[
				{
					"attributes":{
						"POSITION":0,
						"NORMAL":1,
						"TEXCOORD_0":2
					},
					"indices":3,
					"material":0
				}
			]
		},
		{
			"name":"Plane.002",
			"primitives":[
				{
					"attributes":{
						"POSITION":4,
						"NORMAL":5,
						"TEXCOORD_0":6
					},
					"indices":7,
					"material":1
				}
			]
		},
		{
			"name":"Plane.003",
			"primitives":[
				{
					"attributes":{
						"POSITION":8,
						"NORMAL":9,
						"TEXCOORD_0":10
					},
					"indices":11
				}
			]
		},
		{
			"name":"Plane.004",
			"primitives":[
				{
					"attributes":{
						"POSITION":12,
						"NORMAL":13,
						"TEXCOORD_0":14
					},
					"indices":11
				}
			]
		},
		{
			"name":"Plane.005",
			"primitives":[
				{
					"attributes":{
						"POSITION":15,
						"NORMAL":16,
						"TEXCOORD_0":17
					},
					"indices":11
				}
			]
		},
		{
			"name":"Plane.006",
			"primitives":[
				{
					"attributes":{
						"POSITION":18,
						"NORMAL":19,
						"TEXCOORD_0":20
					},
					"indices":11
				}
			]
		},
		{
			"name":"Plane",
			"primitives":[
				{
					"attributes":{
						"POSITION":21,
						"NORMAL":22,
						"TEXCOORD_0":23
					},
					"indices":11
				}
			]
		}
	],
	"textures":[
		{
			"sampler":0,
			"source":0
		},
		{
			"sampler":1,
			"source":0
		}
	],
	"images":[
		{
			"mimeType":"image/jpeg",
			"name":"wood",
			"uri":"wood.jpg"
		}
	],
	"accessors":[
		{
			"bufferView":0,
			"componentType":5126,
			"count":47,
			"max":[
				67.60702514648438,
				20.671306610107422,
				0.001580926007591188
			],
			"min":[
				-3.009871006011963,
				-1.009848713874817,
				-4.414188836676658e-08
			],
			"type":"VEC3"
		},
		{
			"bufferView":1,
			"componentType":5126,
			"count":47,
			"type":"VEC3"
		},
		{
			"bufferView":2,
			"componentType":5126,
			"count":47,
			"type":"VEC2"
		},
		{
			"bufferView":3,
			"componentType":5123,
			"count":96,
			"type":"SCALAR"
		},
		{
			"bufferView":4,
			"componentType":5126,
			"count":34,
			"max":[
				67.60702514648438,
				20.671306610107422,
				0.001580926007591188
			],
			"min":[
				-3.009871006011963,
				-1.009848713874817,
				-4.414188836676658e-08
			],
			"type":"VEC3"
		},
		{
			"bufferView":5,
			"componentType":5126,
			"count":34,
			"type":"VEC3"
		},
		{
			"bufferView":6,
			"componentType":5126,
			"count":34,
			"type":"VEC2"
		},
		{
			"bufferView":7,
			"componentType":5123,
			"count":96,
			"type":"SCALAR"
		},
		{
			"bufferView":8,
			"componentType":5126,
			"count":4,
			"max":[
				1,
				0,
				1
			],
			"min":[
				-1,
				0,
				-1
			],
			"type":"VEC3"
		},
		{
			"bufferView":9,
			"componentType":5126,
			"count":4,
			"type":"VEC3"
		},
		{
			"bufferView":10,
			"componentType":5126,
			"count":4,
			"type":"VEC2"
		},
		{
			"bufferView":11,
			"componentType":5123,
			"count":6,
			"type":"SCALAR"
		},
		{
			"bufferView":12,
			"componentType":5126,
			"count":4,
			"max":[
				1,
				0,
				1
			],
			"min":[
				-1,
				0,
				-1
			],
			"type":"VEC3"
		},
		{
			"bufferView":13,
			"componentType":5126,
			"count":4,
			"type":"VEC3"
		},
		{
			"bufferView":14,
			"componentType":5126,
			"count":4,
			"type":"VEC2"
		},
		{
			"bufferView":15,
			"componentType":5126,
			"count":4,
			"max":[
				1,
				0,
				1
			],
			"min":[
				-1,
				0,
				-1
			],
			"type":"VEC3"
		},
		{
			"bufferView":16,
			"componentType":5126,
			"count":4,
			"type":"VEC3"
		},
		{
			"bufferView":17,
			"componentType":5126,
			"count":4,
			"type":"VEC2"
		},
		{
			"bufferView":18,
			"componentType":5126,
			"count":4,
			"max":[
				1,
				0,
				1
			],
			"min":[
				-1,
				0,
				-1
			],
			"type":"VEC3"
		},
		{
			"bufferView":19,
			"componentType":5126,
			"count":4,
			"type":"VEC3"
		},
		{
			"bufferView":20,
			"componentType":5126,
			"count":4,
			"type":"VEC2"
		},
		{
			"bufferView":21,
			"componentType":5126,
			"count":4,
			"max":[
				1,
				0,
				0.006789445877075195
			],
			"min":[
				-1,
				0,
				-1.9932105541229248
			],
			"type":"VEC3"
		},
		{
			"bufferView":22,
			"componentType":5126,
			"count":4,
			"type":"VEC3"
		},
		{
			"bufferView":23,
			"componentType":5126,
			"count":4,
			"type":"VEC2"
		}
	],
	"bufferViews":[
		{
			"buffer":0,
			"byteLength":564,
			"byteOffset":0,
			"target":34962
		},
		{
			"buffer":0,
			"byteLength":564,
			"byteOffset":564,
			"target":34962
		},
		{
			"buffer":0,
			"byteLength":376,
			"byteOffset":1128,
			"target":34962
		},
		{
			"buffer":0,
			"byteLength":192,
			"byteOffset":1504,
			"target":34963
		},
		{
			"buffer":0,
			"byteLength":408,
			"byteOffset":1696,
			"target":34962
		},
		{
			"buffer":0,
			"byteLength":408,
			"byteOffset":2104,
			"target":34962
		},
		{
			"buffer":0,
			"byteLength":272,
			"byteOffset":2512,
			"target":34962
		},
		{
			"buffer":0,
			"byteLength":192,
			"byteOffset":2784,
			"target":34963
		},
		{
			"buffer":0,
			"byteLength":48,
			"byteOffset":2976,
			"target":34962
		},
		{
			"buffer":0,
			"byteLength":48,
			"byteOffset":3024,
			"target":34962
		},
		{
			"buffer":0,
			"byteLength":32,
			"byteOffset":3072,
			"target":34962
		},
		{
			"buffer":0,
			"byteLength":12,
			"byteOffset":3104,
			"target":34963
		},
		{
			"buffer":0,
			"byteLength":48,
			"byteOffset":3116,
			"target":34962
		},
		{
			"buffer":0,
			"byteLength":48,
			"byteOffset":3164,
			"target":34962
		},
		{
			"buffer":0,
			"byteLength":32,
			"byteOffset":3212,
			"target":34962
		},
		{
			"buffer":0,
			"byteLength":48,
			"byteOffset":3244,
			"target":34962
		},
		{
			"buffer":0,
			"byteLength":48,
			"byteOffset":3292,
			"target":34962
		},
		{
			"buffer":0,
			"byteLength":32,
			"byteOffset":3340,
			"target":34962
		},
		{
			"buffer":0,
			"byteLength":48,
			"byteOffset":3372,
			"target":34962
		},
		{
			"buffer":0,
			"byteLength":48,
			"byteOffset":3420,
			"target":34962
		},
		{
			"buffer":0,
			"byteLength":32,
			"byteOffset":3468,
			"target":34962
		},
		{
			"buffer":0,
			"byteLength":48,
			"byteOffset":3500,
			"target":34962
		},
		{
			"buffer":0,
			"byteLength":48,
			"byteOffset":3548,
			"target":34962
		},
		{
			"buffer":0,
			"byteLength":32,
			"byteOffset":3596,
			"target":34962
		}
	],
	"samplers":[
		{
			"magFilter":9729,
			"minFilter":9987,
			"wrapS":33071,
			"wrapT":33071
		},
		{
			"magFilter":9729,
			"minFilter":9987
		}
	],
	"buffers":[
		{
			"byteLength":3628,
			"uri":"test_map.bin"
		}
	]
}
